<?xml version="1.0" encoding="UTF-8"?>
<!-- Generator: Adobe Illustrator 19.2.1, SVG Export Plug-In . SVG Version: 6.00 Build 0)  -->
<svg version="1.1" id="Layer_1" xmlns="http://www.w3.org/2000/svg" xmlns:xlink="http://www.w3.org/1999/xlink" x="0px" y="0px" width="500" height="500" viewBox="0 0 613.7 458.5" style="enable-background:new 0 0 613.7 458.5;" xml:space="preserve">
<style type="text/css">
	.st0{display:none;}
	.st1{fill:#FFFFFF;}
</style>
<g class="st0">
	<path class="st1" d="M317.3,216c35.9-5.1,63.5-35.9,63.5-73.3c0-22.7-10.2-43-26.3-56.5l-37.3,37.3V216z"/>
	<path class="st1" d="M296.4,216v-92.5l-37.3-37.3c-16.1,13.6-26.3,33.9-26.3,56.5C232.9,180,260.5,210.9,296.4,216z"/>
	<path class="st1" d="M371.2,78.4c17.2,17.2,26.6,40,26.6,64.3s-9.5,47.1-26.6,64.3c-17.2,17.2-40,26.6-64.3,26.6   c-24.3,0-47.1-9.5-64.3-26.6s-26.6-40-26.6-64.3c0-24.3,9.5-47.1,26.6-64.3c1.5-1.5,3-2.9,4.5-4.2l-20.8-20.8   c-1.5,1.4-3,2.8-4.5,4.3c-11,11-19.7,23.9-25.8,38.2c-6.3,14.8-9.5,30.6-9.5,46.8c0,16.2,3.2,32,9.5,46.8   c6.1,14.3,14.7,27.2,25.8,38.2c11,11,23.9,19.7,38.2,25.8c14.8,6.3,30.6,9.5,46.8,9.5c16.2,0,32-3.2,46.8-9.5   c14.3-6.1,27.2-14.7,38.2-25.8c11-11,19.7-23.9,25.8-38.2c6.3-14.8,9.5-30.6,9.5-46.8c0-16.2-3.2-32-9.5-46.8   c-6.1-14.3-14.7-27.2-25.8-38.2c-1.5-1.5-3-2.9-4.5-4.3l-20.8,20.8C368.2,75.5,369.7,76.9,371.2,78.4z"/>
	<circle id="red_circle_52_" class="st1" cx="306.9" cy="59.3" r="37.5"/>
</g>
<g>
	<path d="M317.3,216c35.9-5.1,63.5-35.9,63.5-73.3c0-22.7-10.2-43-26.3-56.5l-37.3,37.3V216z"/>
	<path d="M296.4,216v-92.5l-37.3-37.3c-16.1,13.6-26.3,33.9-26.3,56.5C232.9,180,260.5,210.9,296.4,216z"/>
	<path d="M371.2,78.4c17.2,17.2,26.6,40,26.6,64.3s-9.5,47.1-26.6,64.3c-17.2,17.2-40,26.6-64.3,26.6c-24.3,0-47.1-9.5-64.3-26.6   s-26.6-40-26.6-64.3c0-24.3,9.5-47.1,26.6-64.3c1.5-1.5,3-2.9,4.5-4.2l-20.8-20.8c-1.5,1.4-3,2.8-4.5,4.3   c-11,11-19.7,23.9-25.8,38.2c-6.3,14.8-9.5,30.6-9.5,46.8c0,16.2,3.2,32,9.5,46.8c6.1,14.3,14.7,27.2,25.8,38.2   c11,11,23.9,19.7,38.2,25.8c14.8,6.3,30.6,9.5,46.8,9.5c16.2,0,32-3.2,46.8-9.5c14.3-6.1,27.2-14.7,38.2-25.8   c11-11,19.7-23.9,25.8-38.2c6.3-14.8,9.5-30.6,9.5-46.8c0-16.2-3.2-32-9.5-46.8c-6.1-14.3-14.7-27.2-25.8-38.2   c-1.5-1.5-3-2.9-4.5-4.3l-20.8,20.8C368.2,75.5,369.7,76.9,371.2,78.4z"/>
	<circle id="red_circle_46_" cx="306.9" cy="59.3" r="37.5"/>
</g>
</svg>