<svg viewBox="-25 -25 500 500" width="500" height="500" xmlns="http://www.w3.org/2000/svg" xml:space="preserve" version="1.1">

 <g>
  <title>Layer 1</title>
  <g id="svg_1"/>
  <g id="svg_2" display="none" class="st0">
   <path id="svg_3" fill="#FFFFFF" d="m317.3,216c35.9,-5.1 63.5,-35.9 63.5,-73.3c0,-22.7 -10.2,-43 -26.3,-56.5l-37.3,37.3l0,92.5l0.1,0z" class="st1"/>
   <path id="svg_4" fill="#FFFFFF" d="m296.4,216l0,-92.5l-37.3,-37.3c-16.1,13.6 -26.3,33.9 -26.3,56.5c0.1,37.3 27.7,68.2 63.6,73.3z" class="st1"/>
   <path id="svg_5" fill="#FFFFFF" d="m371.2,78.4c17.2,17.2 26.6,40 26.6,64.3s-9.5,47.1 -26.6,64.3c-17.2,17.2 -40,26.6 -64.3,26.6c-24.3,0 -47.1,-9.5 -64.3,-26.6s-26.6,-40 -26.6,-64.3c0,-24.3 9.5,-47.1 26.6,-64.3c1.5,-1.5 3,-2.9 4.5,-4.2l-20.8,-20.8c-1.5,1.4 -3,2.8 -4.5,4.3c-11,11 -19.7,23.9 -25.8,38.2c-6.3,14.8 -9.5,30.6 -9.5,46.8c0,16.2 3.2,32 9.5,46.8c6.1,14.3 14.7,27.2 25.8,38.2c11,11 23.9,19.7 38.2,25.8c14.8,6.3 30.6,9.5 46.8,9.5c16.2,0 32,-3.2 46.8,-9.5c14.3,-6.1 27.2,-14.7 38.2,-25.8c11,-11 19.7,-23.9 25.8,-38.2c6.3,-14.8 9.5,-30.6 9.5,-46.8c0,-16.2 -3.2,-32 -9.5,-46.8c-6.1,-14.3 -14.7,-27.2 -25.8,-38.2c-1.5,-1.5 -3,-2.9 -4.5,-4.3l-20.8,20.8c1.7,1.3 3.2,2.7 4.7,4.2z" class="st1"/>
   <circle fill="#FFFFFF" r="37.5" cy="59.3" cx="306.9" class="st1" id="red_circle_52_"/>
  </g>
  <g id="svg_10">
   <path id="svg_7" d="m242.11172,352.06882c62.60864,-8.67338 110.74231,-61.05381 110.74231,-124.65862c0,-38.60506 -17.78853,-73.12852 -45.8665,-96.08748l-65.05021,63.43474l0,157.31136l0.1744,0z"/>
   <path id="svg_8" d="m205.66268,352.06882l0,-157.31136l-65.05021,-63.43474c-28.07797,23.12902 -45.8665,57.65249 -45.8665,96.08748c0.1744,63.43474 48.30806,115.98524 110.91671,124.65862z"/>
   <path id="svg_9" d="m336.11188,118.05754c29.99634,29.25141 46.38969,68.02653 46.38969,109.35265s-16.56775,80.10124 -46.38969,109.35265c-29.99634,29.25141 -69.75893,45.23764 -112.13749,45.23764c-42.37855,0 -82.14115,-16.1563 -112.13749,-45.23764s-46.38969,-68.02653 -46.38969,-109.35265c0,-41.32612 16.56775,-80.10124 46.38969,-109.35265c2.61596,-2.55099 5.23192,-4.93192 7.84788,-7.14279l-36.27465,-35.3738c-2.61596,2.38093 -5.23192,4.76186 -7.84788,7.31285c-19.18371,18.7073 -34.35628,40.64585 -44.99451,64.96534c-10.98703,25.16982 -16.56775,52.0403 -16.56775,79.59104c0,27.55075 5.58071,54.42123 16.56775,79.59104c10.63824,24.31949 25.63641,46.25804 44.99451,64.96534c19.18371,18.7073 41.68096,33.50307 66.61978,43.87711c25.81081,10.71418 53.36559,16.1563 81.61795,16.1563c28.25237,0 55.80715,-5.44212 81.61795,-16.1563c24.93882,-10.37405 47.43608,-24.99975 66.61978,-43.87711c19.18371,-18.7073 34.35628,-40.64585 44.99451,-64.96534c10.98703,-25.16982 16.56775,-52.0403 16.56775,-79.59104c0,-27.55075 -5.58071,-54.42123 -16.56775,-79.59104c-10.63824,-24.31949 -25.63641,-46.25804 -44.99451,-64.96534c-2.61596,-2.55099 -5.23192,-4.93192 -7.84788,-7.31285l-36.27465,35.3738c2.96475,2.21086 5.58071,4.59179 8.19667,7.14279z"/>
   <circle r="63.77487" cy="85.57488" cx="223.9744" id="red_circle_46_"/>
  </g>
 </g>
</svg>